<svg width="48" height="48" viewBox="0 0 48 48" fill="#B5C69C" xmlns="http://www.w3.org/2000/svg">
<path d="M6 45.6616V2.18519C6 2.13413 6.06751 2.11591 6.09321 2.16002L24.0818 33.0444L41.9067 2.16166C41.9323 2.11735 42 2.13549 42 2.18665V45.6616C42 45.7165 41.9243 45.7313 41.9036 45.6803L35.39 29.5833C35.3802 29.5592 35.3536 29.5466 35.3288 29.5543L24.0818 33.0444L12.6711 29.5541C12.6463 29.5465 12.6198 29.5591 12.6101 29.5832L6.09635 45.6803C6.07574 45.7313 6 45.7165 6 45.6616Z" 
fill="#B5C69C"/>
<path d="M24.0818 33.0444L6.09321 2.16002C6.06751 2.11591 6 2.13413 6 2.18519V45.6616C6 45.7165 6.07574 45.7313 6.09635 45.6803L12.6101 29.5832C12.6198 29.5591 12.6463 29.5465 12.6711 29.5541L24.0818 33.0444ZM24.0818 33.0444L41.9067 2.16166C41.9323 2.11735 42 2.13549 42 2.18665V45.6616C42 45.7165 41.9243 45.7313 41.9036 45.6803L35.39 29.5833C35.3802 29.5592 35.3536 29.5466 35.3288 29.5543L24.0818 33.0444Z" 
stroke="#B5C69C"/>
<path d="M24.0019 10.1482C14.0717 10.1482 6 18.1867 6 28.076C6 37.9654 14.0717 46 24.0019 46C33.9322 46 42 37.9654 42 28.076C42 18.1867 33.9322 10.1482 24.0019 10.1482ZM24.0019 13C33.1903 13 39 18.9255 39 28.076C39 37.2266 33.1903 43 24.0019 43C14.8136 43 9 37.2266 9 28.076C9 18.9255 14.8136 13 24.0019 13Z" 
fill="#B5C69C"/>
</svg>
