<svg width="138" height="21" viewBox="0 0 138 21" fill="none" xmlns="http://www.w3.org/2000/svg">
<path d="M8.32 17.91L5.14 10.5C4.74 9.54 4.41 8.66 4.15 7.86C3.89 7.04 3.64 6.18 3.4 5.28H3.31C3.39 5.74 3.46 6.23 3.52 6.75C3.6 7.27 3.66 7.79 3.7 8.31C3.76 8.83 3.8 9.33 3.82 9.81C3.86 10.29 3.88 10.72 3.88 11.1V21H0.1V0.779999H4.48L8.56 10.08C8.96 10.98 9.29 11.86 9.55 12.72C9.83 13.58 10.02 14.38 10.12 15.12H10.18C10.28 14.38 10.46 13.58 10.72 12.72C11 11.86 11.34 10.98 11.74 10.08L15.82 0.779999H20.2V21H16.42V11.1C16.42 10.72 16.43 10.29 16.45 9.81C16.49 9.33 16.53 8.83 16.57 8.31C16.63 7.79 16.69 7.27 16.75 6.75C16.83 6.23 16.91 5.74 16.99 5.28H16.9C16.66 6.18 16.41 7.04 16.15 7.86C15.89 8.66 15.56 9.54 15.16 10.5L11.98 17.91H8.32ZM24.9871 21H21.0871V0.779999H24.9871V21ZM42.523 10.8C42.523 14.16 41.633 16.7 39.853 18.42C38.093 20.14 35.533 21 32.173 21H25.873V0.779999H32.173C35.533 0.779999 38.093 1.64 39.853 3.36C41.633 5.06 42.523 7.54 42.523 10.8ZM38.623 10.8C38.623 9.6 38.473 8.58 38.173 7.74C37.873 6.88 37.443 6.19 36.883 5.67C36.343 5.13 35.673 4.74 34.873 4.5C34.073 4.26 33.173 4.14 32.173 4.14H29.773V17.64H32.173C33.173 17.64 34.073 17.51 34.873 17.25C35.673 16.99 36.343 16.58 36.883 16.02C37.443 15.46 37.873 14.75 38.173 13.89C38.473 13.03 38.623 12 38.623 10.8ZM59.1156 10.8C59.1156 14.16 58.2256 16.7 56.4456 18.42C54.6856 20.14 52.1256 21 48.7656 21H42.4656V0.779999H48.7656C52.1256 0.779999 54.6856 1.64 56.4456 3.36C58.2256 5.06 59.1156 7.54 59.1156 10.8ZM55.2156 10.8C55.2156 9.6 55.0656 8.58 54.7656 7.74C54.4656 6.88 54.0356 6.19 53.4756 5.67C52.9356 5.13 52.2656 4.74 51.4656 4.5C50.6656 4.26 49.7656 4.14 48.7656 4.14H46.3656V17.64H48.7656C49.7656 17.64 50.6656 17.51 51.4656 17.25C52.2656 16.99 52.9356 16.58 53.4756 16.02C54.0356 15.46 54.4656 14.75 54.7656 13.89C55.0656 13.03 55.2156 12 55.2156 10.8ZM59.0582 0.779999L62.9582 0.75V17.64H71.8982V21H59.0582V0.779999ZM71.3441 0.779999H84.4841V4.08H75.1241V9.03H83.9141V12.33H75.1241V17.7H84.6641V21H71.3441V0.779999ZM92.8755 17.91L89.6955 10.5C89.2955 9.54 88.9655 8.66 88.7055 7.86C88.4455 7.04 88.1955 6.18 87.9555 5.28H87.8655C87.9455 5.74 88.0155 6.23 88.0755 6.75C88.1555 7.27 88.2155 7.79 88.2555 8.31C88.3155 8.83 88.3555 9.33 88.3755 9.81C88.4155 10.29 88.4355 10.72 88.4355 11.1V21H84.6555V0.779999H89.0355L93.1155 10.08C93.5155 10.98 93.8455 11.86 94.1055 12.72C94.3855 13.58 94.5755 14.38 94.6755 15.12H94.7355C94.8355 14.38 95.0155 13.58 95.2755 12.72C95.5555 11.86 95.8955 10.98 96.2955 10.08L100.375 0.779999H104.755V21H100.975V11.1C100.975 10.72 100.985 10.29 101.005 9.81C101.045 9.33 101.085 8.83 101.125 8.31C101.185 7.79 101.245 7.27 101.305 6.75C101.385 6.23 101.465 5.74 101.545 5.28H101.455C101.215 6.18 100.965 7.04 100.705 7.86C100.445 8.66 100.115 9.54 99.7155 10.5L96.5355 17.91H92.8755ZM116.653 16.47H109.333L107.803 21H103.723L111.013 0.779999H114.973L122.263 21H118.183L116.653 16.47ZM110.473 13.23H115.513L114.523 10.2L113.023 5.04H112.963L111.463 10.2L110.473 13.23ZM133.599 0.779999H137.499V21H133.599L126.699 9.54C126.279 8.84 125.899 8.15 125.559 7.47C125.239 6.79 124.959 6.08 124.719 5.34H124.629C124.789 6.18 124.909 7 124.989 7.8C125.089 8.58 125.139 9.29 125.139 9.93V21H121.239V0.779999H125.439L132.039 12.24C132.459 12.94 132.829 13.63 133.149 14.31C133.489 14.99 133.779 15.7 134.019 16.44H134.109C133.949 15.6 133.819 14.79 133.719 14.01C133.639 13.21 133.599 12.49 133.599 11.85V0.779999Z" fill="#222222"/>
</svg>
